<svg width="320" height="192" viewBox="0 0 320 192" fill="none" xmlns="http://www.w3.org/2000/svg">
<path d="M24.8203 89.4999L35.4803 39.3799H84.3803L80.3803 58.4999H84.6003L78.0003 89.4999H24.8203ZM46.0003 58.4999H70.0003L72.5003 46.7599H48.4003L46.0003 58.4999ZM40.8803 82.1199H65.0403L68.5003 65.8799H44.3203L40.8803 82.1199Z" fill="#0E5978"/>
<path d="M103.68 89.4999L114.34 39.3799H99.8602L89.2002 89.4999H103.68Z" fill="#262626"/>
<path fill-rule="evenodd" clip-rule="evenodd" d="M189.453 108.793C194.781 103.466 202.006 100.473 209.54 100.473C221.826 100.473 230.441 107.58 235.728 114.06C237.707 116.485 239.286 118.898 240.49 120.97C241.693 118.898 243.272 116.485 245.251 114.06C248.922 109.561 254.197 104.76 261.19 102.245L256.84 83.3799L242.44 87.9399L238.02 80.9599H238L262.7 73.1399L269.012 100.567C269.805 100.505 270.614 100.473 271.44 100.473C278.974 100.473 286.199 103.466 291.526 108.793C296.854 114.121 299.846 121.346 299.846 128.88C299.846 136.414 296.854 143.639 291.526 148.966C286.199 154.294 278.974 157.287 271.44 157.287C259.227 157.287 250.614 150.172 245.317 143.707C243.31 141.257 241.708 138.82 240.49 136.734C239.272 138.82 237.67 141.257 235.662 143.707C230.366 150.172 221.753 157.287 209.54 157.287C202.006 157.287 194.781 154.294 189.453 148.966C184.126 143.639 181.133 136.414 181.133 128.88C181.133 121.346 184.126 114.121 189.453 108.793ZM263.31 111.439L267.54 129.78L275.32 127.98L271.138 109.809C271.239 109.807 271.339 109.807 271.44 109.807C276.498 109.807 281.35 111.816 284.927 115.393C288.504 118.97 290.513 123.821 290.513 128.88C290.513 133.938 288.504 138.79 284.927 142.367C281.35 145.944 276.498 147.953 271.44 147.953C263.193 147.953 256.966 143.198 252.537 137.792C250.35 135.123 248.722 132.431 247.64 130.397C247.335 129.825 247.077 129.309 246.863 128.867C247.073 128.426 247.327 127.913 247.627 127.344C248.696 125.314 250.309 122.625 252.483 119.96C255.311 116.494 258.896 113.286 263.31 111.439ZM234.117 128.867C233.907 128.426 233.652 127.913 233.353 127.344C232.284 125.314 230.671 122.625 228.496 119.96C224.099 114.57 217.874 109.807 209.54 109.807C204.481 109.807 199.63 111.816 196.053 115.393C192.476 118.97 190.466 123.821 190.466 128.88C190.466 133.938 192.476 138.79 196.053 142.367C199.63 145.944 204.481 147.953 209.54 147.953C217.787 147.953 224.014 143.198 228.442 137.792C230.629 135.123 232.258 132.431 233.34 130.397C233.644 129.825 233.903 129.309 234.117 128.867Z" fill="#262626"/>
<path d="M170.52 89.4999H154.52L140.92 67.8399H134L129.4 89.4999H114.94L125.58 39.3799H140L135.48 60.4599H142.5L164.8 39.3799H181.18L154.9 63.9999L170.52 89.4999Z" fill="#262626"/>
<path d="M177.32 89.4999H231.56L226.88 82.1399H193.36L196.32 68.1399H232.96L234.54 60.7599H197.88L200.88 46.7599H234.66L242.36 39.3799H188L177.32 89.4999Z" fill="#262626"/>
<path d="M36.1398 146.14H24.8198L33.3398 106.14H75.2198L69.0798 112H43.4198L41.4198 121.22H70.4198L64.1598 127.22H40.1598L36.1398 146.14Z" fill="#262626"/>
<path d="M72 146.14H115.54L124 106H112.74L105.48 140.24H84.8L92 106.14H80.52L72 146.14Z" fill="#262626"/>
<path d="M138.8 124.3L134.16 146.14H122.58L131.1 106.14L158.4 127.7L163 106H174.4L165.88 146L138.8 124.3Z" fill="#262626"/>
</svg>
